@startuml

scale 1920 width

<style>
stateDiagram {
  BackgroundColor grey
  'LineColor white
  FontName Impact
  FontColor white
  arrow {
    FontSize 13
    LineColor black
  }
}
</style>



[*] -> setup : Entry point

state setup ##[bold]yellow {
 [*] --> select_octave : Entry point
 select_octave: 1 to 7
 select_octave --> select_note : Succeeded
 select_note: C, C#, D, D#, E, F, F#, G, G#, A, A#, B
 select_note --> show_hz : Succeeded
 show_hz: microbit display
 show_hz --> [*] : Succeeded
}
setup -> set_world_position : Succeeded


state set_world_position ##[bold]cyan {
 set_world_position: map current x, y, z
 set_world_position: movement values to 0
 set_world_position: in retalion of physical world
}
set_world_position -> play_insturment : Succeeded



state play_insturment ##[bold]magenta {
 state sense_movement ##[bold]red {
  [*] --> x_movement : Entry point
  x_movement -> y_movement: Succeeded
  y_movement -> z_movement: Succeeded
  z_movement -> x_rotation: Succeeded
  x_rotation -> y_rotation: Succeeded
  y_rotation -> z_rotation: Succeeded
  z_rotation --> [*]: Succeeded
 }
 sense_movement --> process_sound : Succeeded
 

state process_sound ##[bold]green {
 }
 process_sound --> play_sound : Succeeded
 


state play_sound ##[bold]blue {
 }
 play_sound --> sense_movement: Succeeded
}

play_insturment -> [*] : Disconected

@enduml
